<svg width="32" height="32" viewBox="0 0 32 32" fill="none" xmlns="http://www.w3.org/2000/svg">
<g clip-path="url(#clip0_2906_81)">
<path fill-rule="evenodd" clip-rule="evenodd" d="M1.875 4.51936C0.000488472 6.39389 0.000488281 9.41087 0.000488281 15.4449C0.000488281 21.4788 0.000488472 24.4959 1.875 26.3703C3.74953 28.2449 6.7665 28.2449 12.8005 28.2449H19.2005C25.2344 28.2449 28.2515 28.2449 30.1259 26.3703C32.0005 24.4959 32.0005 21.4788 32.0005 15.4449C32.0005 9.41087 32.0005 6.39389 30.1259 4.51936C28.2515 2.64485 25.2344 2.64485 19.2005 2.64485H12.8005C6.7665 2.64485 3.74953 2.64485 1.875 4.51936ZM17.2008 12.2449C17.2008 11.5821 16.6635 11.0449 16.0008 11.0449C15.3381 11.0449 14.8008 11.5821 14.8008 12.2449V13.3668L13.829 12.8057C13.255 12.4743 12.5211 12.6709 12.1898 13.2449C11.8584 13.8188 12.055 14.5527 12.629 14.8841L13.6 15.4447L12.6286 16.0057C12.0547 16.337 11.858 17.0709 12.1894 17.6449C12.5208 18.2188 13.2547 18.4154 13.8286 18.0841L14.8008 17.5228V18.6449C14.8008 19.3076 15.3381 19.8449 16.0008 19.8449C16.6635 19.8449 17.2008 19.3076 17.2008 18.6449V17.5237L18.1715 18.0841C18.7454 18.4154 19.4794 18.2188 19.8107 17.6449C20.1421 17.0709 19.9454 16.337 19.3715 16.0057L18.4 15.4447L19.3712 14.8841C19.9451 14.5527 20.1418 13.8188 19.8104 13.2449C19.479 12.6709 18.7451 12.4743 18.1712 12.8057L17.2008 13.3658V12.2449ZM7.57274 11.0449C8.23548 11.0449 8.77274 11.5821 8.77274 12.2449V13.3658L9.74305 12.8057C10.317 12.4743 11.0509 12.6709 11.3823 13.2449C11.7137 13.8188 11.517 14.5527 10.943 14.8841L9.97196 15.4447L10.9434 16.0057C11.5174 16.337 11.714 17.0709 11.3827 17.6449C11.0513 18.2188 10.3174 18.4154 9.74343 18.0841L8.77274 17.5237V18.6449C8.77274 19.3076 8.23548 19.8449 7.57274 19.8449C6.90999 19.8449 6.37274 19.3076 6.37274 18.6449V17.5228L5.40049 18.0841C4.82654 18.4154 4.09263 18.2188 3.76126 17.6449C3.42988 17.0709 3.62654 16.337 4.20049 16.0057L5.17196 15.4447L4.20086 14.8841C3.62692 14.5527 3.43026 13.8188 3.76164 13.2449C4.093 12.6709 4.82692 12.4743 5.40086 12.8057L6.37274 13.3668V12.2449C6.37274 11.5821 6.90999 11.0449 7.57274 11.0449ZM25.6294 12.2449C25.6294 11.5821 25.0922 11.0449 24.4294 11.0449C23.7667 11.0449 23.2294 11.5821 23.2294 12.2449V13.3668L22.2574 12.8057C21.6835 12.4743 20.9496 12.6709 20.6182 13.2449C20.2869 13.8188 20.4835 14.5527 21.0574 14.8841L22.0286 15.4447L21.0571 16.0057C20.4832 16.337 20.2866 17.0709 20.6179 17.6449C20.9493 18.2188 21.6832 18.4154 22.2571 18.0841L23.2294 17.5228V18.6449C23.2294 19.3076 23.7667 19.8449 24.4294 19.8449C25.0922 19.8449 25.6294 19.3076 25.6294 18.6449V17.5237L26.6 18.0841C27.1741 18.4154 27.908 18.2188 28.2394 17.6449C28.5707 17.0709 28.3741 16.337 27.8 16.0057L26.8286 15.4447L27.7997 14.8841C28.3736 14.5527 28.5702 13.8188 28.2389 13.2449C27.9075 12.6709 27.1736 12.4743 26.5997 12.8057L25.6294 13.3658V12.2449Z" fill="#3DADFF"/>
</g>
<defs>
<clipPath id="clip0_2906_81">
<rect width="32" height="32" fill="white"/>
</clipPath>
</defs>
</svg>
